<?xml version="1.0" encoding="UTF-8"?>
<svg width="853px" height="1692px" viewBox="0 0 853 1692" version="1.1" xmlns="http://www.w3.org/2000/svg" xmlns:xlink="http://www.w3.org/1999/xlink">
    <!-- Generator: Sketch 50.2 (55047) - http://www.bohemiancoding.com/sketch -->
    <title>iphone x transparent</title>
    <desc>Created with Sketch.</desc>
    <defs>
        <linearGradient x1="0%" y1="0%" x2="100%" y2="100%" id="linearGradient-1">
            <stop stop-color="#FFFFFF" offset="0%"></stop>
            <stop stop-color="#FEFEFE" offset="100%"></stop>
        </linearGradient>
        <path d="M827,350 L843,350 C846.865993,350 850,353.134007 850,357 L850,499 C850,502.865993 846.865993,506 843,506 L827,506 C823.134007,506 820,502.865993 820,499 L820,357 C820,353.134007 823.134007,350 827,350 Z M7,223 L23,223 C26.8659932,223 30,226.134007 30,230 L30,284 C30,287.865993 26.8659932,291 23,291 L7,291 C3.13400675,291 4.73447626e-16,287.865993 0,284 L0,230 C-4.73447626e-16,226.134007 3.13400675,223 7,223 Z M7,350 L23,350 C26.8659932,350 30,353.134007 30,357 L30,465 C30,468.865993 26.8659932,472 23,472 L7,472 C3.13400675,472 4.73447626e-16,468.865993 0,465 L0,357 C-4.73447626e-16,353.134007 3.13400675,350 7,350 Z M7,506 L23,506 C26.8659932,506 30,509.134007 30,513 L30,621 C30,624.865993 26.8659932,628 23,628 L7,628 C3.13400675,628 4.73447626e-16,624.865993 0,621 L0,513 C-4.73447626e-16,509.134007 3.13400675,506 7,506 Z" id="path-2"></path>
        <filter x="-22.4%" y="-33.6%" width="144.7%" height="193.8%" filterUnits="objectBoundingBox" id="filter-3">
            <feMorphology radius="3" operator="dilate" in="SourceAlpha" result="shadowSpreadOuter1"></feMorphology>
            <feOffset dx="0" dy="54" in="shadowSpreadOuter1" result="shadowOffsetOuter1"></feOffset>
            <feGaussianBlur stdDeviation="60" in="shadowOffsetOuter1" result="shadowBlurOuter1"></feGaussianBlur>
            <feComposite in="shadowBlurOuter1" in2="SourceAlpha" operator="out" result="shadowBlurOuter1"></feComposite>
            <feColorMatrix values="0 0 0 0 0   0 0 0 0 0   0 0 0 0 0  0 0 0 0.132840806 0" type="matrix" in="shadowBlurOuter1"></feColorMatrix>
        </filter>
        <circle id="path-4" cx="9" cy="9" r="9"></circle>
        <filter x="-25.0%" y="-25.0%" width="150.0%" height="150.0%" filterUnits="objectBoundingBox" id="filter-5">
            <feGaussianBlur stdDeviation="2.5" in="SourceAlpha" result="shadowBlurInner1"></feGaussianBlur>
            <feOffset dx="-2" dy="-2" in="shadowBlurInner1" result="shadowOffsetInner1"></feOffset>
            <feComposite in="shadowOffsetInner1" in2="SourceAlpha" operator="arithmetic" k2="-1" k3="1" result="shadowInnerInner1"></feComposite>
            <feColorMatrix values="0 0 0 0 0   0 0 0 0 0   0 0 0 0 0  0 0 0 0.344061368 0" type="matrix" in="shadowInnerInner1"></feColorMatrix>
        </filter>
        <rect id="path-6" x="0" y="4" width="100" height="10" rx="5"></rect>
        <filter x="-4.0%" y="-40.0%" width="108.0%" height="180.0%" filterUnits="objectBoundingBox" id="filter-7">
            <feGaussianBlur stdDeviation="2" in="SourceAlpha" result="shadowBlurInner1"></feGaussianBlur>
            <feOffset dx="2" dy="2" in="shadowBlurInner1" result="shadowOffsetInner1"></feOffset>
            <feComposite in="shadowOffsetInner1" in2="SourceAlpha" operator="arithmetic" k2="-1" k3="1" result="shadowInnerInner1"></feComposite>
            <feColorMatrix values="0 0 0 0 0   0 0 0 0 0   0 0 0 0 0  0 0 0 0.344061368 0" type="matrix" in="shadowInnerInner1"></feColorMatrix>
        </filter>
    </defs>
    <g id="iphone-x-transparent" stroke="none" stroke-width="1" fill="none" fill-rule="evenodd">
        <g id="yelp-iphone-x-1" transform="translate(2.000000, 5.000000)">
            <g id="Buttons">
                <use fill="black" fill-opacity="1" filter="url(#filter-3)" xlink:href="#path-2"></use>
                <path stroke-opacity="0.04" stroke="#000000" stroke-width="3" d="M827,348.5 L843,348.5 C847.69442,348.5 851.5,352.30558 851.5,357 L851.5,499 C851.5,503.69442 847.69442,507.5 843,507.5 L827,507.5 C822.30558,507.5 818.5,503.69442 818.5,499 L818.5,357 C818.5,352.30558 822.30558,348.5 827,348.5 Z M7,221.5 L23,221.5 C27.6944204,221.5 31.5,225.30558 31.5,230 L31.5,284 C31.5,288.69442 27.6944204,292.5 23,292.5 L7,292.5 C2.30557963,292.5 -1.5,288.69442 -1.5,284 L-1.5,230 C-1.5,225.30558 2.30557963,221.5 7,221.5 Z M7,348.5 L23,348.5 C27.6944204,348.5 31.5,352.30558 31.5,357 L31.5,465 C31.5,469.69442 27.6944204,473.5 23,473.5 L7,473.5 C2.30557963,473.5 -1.5,469.69442 -1.5,465 L-1.5,357 C-1.5,352.30558 2.30557963,348.5 7,348.5 Z M7,504.5 L23,504.5 C27.6944204,504.5 31.5,508.30558 31.5,513 L31.5,621 C31.5,625.69442 27.6944204,629.5 23,629.5 L7,629.5 C2.30557963,629.5 -1.5,625.69442 -1.5,621 L-1.5,513 C-1.5,508.30558 2.30557963,504.5 7,504.5 Z" fill="url(#linearGradient-1)" fill-rule="evenodd"></path>
            </g>
            <g id="screen" transform="translate(50.000000, 29.000000)"></g>
            <path d="M215.5,31.5 L135,31.5 C89.4365081,31.5 52.5,68.4365081 52.5,114 L52.5,1568 C52.5,1613.56349 89.4365081,1650.5 135,1650.5 L715,1650.5 C760.563492,1650.5 797.5,1613.56349 797.5,1568 L797.5,114 C797.5,68.4365081 760.563492,31.5 715,31.5 L634.5,31.5 L634.5,67 C634.5,89.9198171 615.919817,108.5 593,108.5 L257,108.5 C234.080183,108.5 215.5,89.9198171 215.5,67 L215.5,31.5 Z M145.19426,-2.5 L704.80574,-2.5 C745.823983,-2.5 764.089382,1.02721133 783.021282,11.1521022 C799.75325,20.1004563 812.899544,33.2467502 821.847898,49.9787177 C831.972789,68.9106176 835.5,87.176017 835.5,128.19426 L835.5,1553.80574 C835.5,1594.82398 831.972789,1613.08938 821.847898,1632.02128 C812.899544,1648.75325 799.75325,1661.89954 783.021282,1670.8479 C764.089382,1680.97279 745.823983,1684.5 704.80574,1684.5 L145.19426,1684.5 C104.176017,1684.5 85.9106176,1680.97279 66.9787177,1670.8479 C50.2467502,1661.89954 37.1004563,1648.75325 28.1521022,1632.02128 C18.0272113,1613.08938 14.5,1594.82398 14.5,1553.80574 L14.5,128.19426 C14.5,87.176017 18.0272113,68.9106176 28.1521022,49.9787177 C37.1004563,33.2467502 50.2467502,20.1004563 66.9787177,11.1521022 C85.9106176,1.02721133 104.176017,-2.5 145.19426,-2.5 Z" id="screen-frame" stroke-opacity="0.03" stroke="#000000" stroke-width="5" fill="url(#linearGradient-1)"></path>
            <g id="sensor-camera" opacity="0.6" transform="translate(370.000000, 50.000000)">
                <g id="Group" opacity="0.75" transform="translate(150.000000, 0.000000)">
                    <g id="Oval">
                        <use fill="#BFC0C5" fill-rule="evenodd" xlink:href="#path-4"></use>
                        <use fill="black" fill-opacity="1" filter="url(#filter-5)" xlink:href="#path-4"></use>
                        <circle stroke-opacity="0.568331069" stroke="#7D7D7D" stroke-width="1" cx="9" cy="9" r="9.5"></circle>
                    </g>
                </g>
                <g id="Rectangle-2">
                    <use fill="#BFC0C5" fill-rule="evenodd" xlink:href="#path-6"></use>
                    <use fill="black" fill-opacity="1" filter="url(#filter-7)" xlink:href="#path-6"></use>
                    <rect stroke-opacity="0.568331069" stroke="#7D7D7D" stroke-width="1" x="-0.5" y="3.5" width="101" height="11" rx="5.5"></rect>
                </g>
            </g>
        </g>
    </g>
</svg>